<svg id="Layer_1" data-name="Layer 1" xmlns="http://www.w3.org/2000/svg" viewBox="0 0 595.87 75.04"><defs><style>.cls-1{fill:#26bf7f;}.cls-2{fill:#1f2d3d;}</style></defs><title>talenthub-logo</title><path class="cls-1" d="M570.5.1a27.32,27.32,0,0,0-29.2,25.3,28.63,28.63,0,0,0,.8,8.8,27.39,27.39,0,0,1,19.6,19.6,27.46,27.46,0,0,0,34.2-24.5A27.46,27.46,0,0,0,570.5.1Zm-2,40.9a13.6,13.6,0,1,1,13.6-13.6A13.61,13.61,0,0,1,568.5,41Z" transform="translate(-0.1)"/><circle class="cls-1" cx="535.1" cy="60.7" r="13.6"/><path class="cls-2" d="M494,27.1c-7.9-8.4-24.8-11.5-34.6-1.3V.1C454,0,449,0,443.9,0V73.3h15.3c.1-1.8.2-3.5.3-5.4,9.7,10.2,26.6,7,34.5-1.3C504.1,55.8,504.1,37.9,494,27.1ZM472.2,60c-7.8-.1-13.7-5.9-13.7-13.4s6.1-13.1,13.9-13.1a13,13,0,0,1,13.4,13.2C485.9,54.4,480,60.1,472.2,60Z" transform="translate(-0.1)"/><path class="cls-2" d="M97.1,54.5c-.1-4.4,0-8.7,0-13.1V20.5H81.5c-.1,1.7-.2,3.2-.3,5.2-7.9-9.2-25-7.9-33.6.7C37,36.8,36.2,54.8,46.1,65.8a24.68,24.68,0,0,0,16.5,8.5c7.8.6,15.1-.4,20.4-7,4.8,6.8,12.4,9,20.4,6.1V60.9C98.1,60.5,97.3,59.7,97.1,54.5ZM68.5,60c-7.7,0-13.6-5.7-13.6-13.2A13.15,13.15,0,0,1,68.2,33.6c7.9-.1,14.2,5.8,14.2,13.2S76.3,60,68.5,60Z" transform="translate(-0.1)"/><path class="cls-2" d="M362.3,55c-.1-6,.1-12-.3-18-.7-10.6-7.5-17.4-18-18-6.2-.3-11.8,1.2-16.5,7.1V0H312V73.3h15.6c0-10.1-.1-20,0-29.8.1-6.5,4.3-10.6,10.2-10.5,5.5.1,8.5,3.7,8.6,10.5.1,6-.2,12,.3,18C347.8,72.3,357,77.3,367,73V60.2C363.1,60.6,362.4,58.1,362.3,55Z" transform="translate(-0.1)"/><path class="cls-2" d="M181.6,21.1c-13.1-5.4-29.2-1.2-36,9.9-6.3,10.2-6.5,21-.4,31.2s16.2,13,27.5,12.4a27.87,27.87,0,0,0,19.7-9c-2.8-3.3-5.4-6.4-8.1-9.5-6.8,5.7-14,6.9-21.6,3.4a9.15,9.15,0,0,1-5.7-8.6h39.7C199.3,38.3,192.7,25.7,181.6,21.1Zm-24,19.4c.4-4.9,4.7-8.1,11.3-8.5s11.1,2.5,12.5,8.5Z" transform="translate(-0.1)"/><path class="cls-2" d="M256.2,54.7c-.2-6,.1-12-.4-18-.8-10.2-7.1-16.4-17.2-17.5-6.9-.8-12.9,1.1-17.9,6.6-.1-2.1-.2-3.7-.3-5.4H205.1V73.2h15.5c0-9.8-.1-19.4,0-29,0-7,4-11.3,10.2-11.3s9.4,3.6,9.5,11.2c.1,6-.1,12,.4,18,.7,7.8,4.9,11.6,12.7,11.9,2.5.1,4.9-.3,7.6-.4V60.4C256.8,59.6,256.3,59.1,256.2,54.7Z" transform="translate(-0.1)"/><path class="cls-2" d="M287.5.2H272.1V20.4h-6.5V34.7h6.7c0,7.9-.2,15.2.1,22.7.2,6.2,1.8,12,7.9,15.2,5.7,3,11.9,2.9,18,1.5V60.4a38.55,38.55,0,0,1-4.7.2c-2.8-.2-5.4-1.3-5.5-4.5-.2-7.1-.1-13.8-.1-21.3h11.3V20.5H287.7C287.5,13.4,287.5,6.7,287.5.2Z" transform="translate(-0.1)"/><path class="cls-2" d="M127.2,51.8V.2H111.4s0,44.6.2,58.7c.1,6.5,2.8,12,9.3,14.5a25,25,0,0,0,16,.6V60.4C128.7,61.1,127.2,59.8,127.2,51.8Z" transform="translate(-0.1)"/><path class="cls-2" d="M426,52.5V20.4H410.2v4.4c0,8,.1,16-.1,24a15.72,15.72,0,0,1-1.5,6.8c-1.7,3.8-5.8,5.6-10,5s-7.1-3.2-7.3-7.8c-.4-9.4-.3-18.7-.4-28.1V20.5H375.7c0,12.8-.6,25.4.2,38,.5,8.9,7.6,14.9,16.4,15.8,7.5.8,14.5,0,19.5-7.1v.1a11.48,11.48,0,0,0,5.6,5.7.1.1,0,0,1,.1.1c.2.1.3.2.5.2s.2.1.3.1.3.1.5.2c5,1.7,10.7,1.2,15.8-.2V59.8C427.1,60.5,426.1,59.5,426,52.5Z" transform="translate(-0.1)"/><path class="cls-2" d="M22,.2H6.6V20.4H.1V34.7H6.8c0,7.9-.2,15.2.1,22.7.2,6.2,1.8,12,7.9,15.2,5.7,3,11.9,2.9,18,1.5V60.4a38.55,38.55,0,0,1-4.7.2c-2.8-.2-5.4-1.3-5.5-4.5-.2-7.1-.1-13.8-.1-21.3H33.8V20.5H22.2C22,13.4,22,6.7,22,.2Z" transform="translate(-0.1)"/></svg>